<svg id="Layer_1" data-name="Layer 1" xmlns="http://www.w3.org/2000/svg" viewBox="0 0 122.88 106.35">
    <style>
        .cls-1 { fill: #FFFFFF; } /* Icono en blanco */
        .circle-background { fill: rgb(25, 39, 83); } /* Círculo en azul oscuro */
    </style>
    <title>residential-apartments</title>
    <!-- Círculo de fondo -->
    <circle class="circle-background" cx="61.44" cy="53.175" r="80"/>
    <!-- Icono en blanco -->
    <path class="cls-1" d="M35.57,103.26H26.06V88.52a1,1,0,0,0-1-1H13.09a1.06,1.06,0,0,0-1.06,1v14.74H10.34v3.09h102.2v-3.09h-1.69V88.52a1.06,1.06,0,0,0-1.06-1H97.87a1,1,0,0,0-1.05,1v14.74H74.44V82.42A1.41,1.41,0,0,0,73,81H49.75a1.41,1.41,0,0,0-1.41,1.41v20.84H32.49V32.87H3v70.39h7.39v3.09H1.41A1.41,1.41,0,0,1,0,104.94V32a2,2,0,0,1,.61-1.46h0a2,2,0,0,1,1.45-.6H32.49V2.25A2.47,2.47,0,0,1,33.21.73h0A2.45,2.45,0,0,1,35,0H87.83a2.42,2.42,0,0,1,1.74.72l.11.12a2.45,2.45,0,0,1,.63,1.63V29.92h30.5a2,2,0,0,1,1.45.6h0a2,2,0,0,1,.61,1.46v73a1.41,1.41,0,0,1-1.41,1.41h-8.93v-3.09h7.39V32.87H90.3v70.39H87.21V3.08H35.57V103.26Z"/>
</svg>
